<svg version="1.1" xmlns="http://www.w3.org/2000/svg" xmlns:xlink="http://www.w3.org/1999/xlink" x="0px" y="0px" width="36.1px"
	 height="36.1px" viewBox="0 0 36.1 36.1" style="overflow:visible;enable-background:new 0 0 36.1 36.1;" xml:space="preserve">
<style type="text/css">
	.st0{fill:#FFFFFF;}
</style>
<defs>
</defs>
<g>
	<path d="M26.9,36.1h-6.1L18,35.1l-2.8,0.9H9.1c-5,0-9.1-4.1-9.1-9.1V9.1C0,4.1,4.1,0,9.1,0h17.8c5,0,9.1,4.1,9.1,9.1v17.8
		C36.1,32,32,36.1,26.9,36.1z"/>
	<path class="st0" d="M15.2,14.1V18h-4.5v5.1h4.5v12.9h5.6V23.2H25l0.8-5.1h-4.9v-3.3c0-1.4,0.7-2.8,2.9-2.8H26V7.5c0,0-2-0.3-4-0.3
		C17.9,7.2,15.2,9.6,15.2,14.1z"/>
</g>
</svg>
