<svg width="30" height="30" viewBox="0 0 30 30" fill="none" xmlns="http://www.w3.org/2000/svg">
<path d="M22.3546 30H17.2853L14.9584 29.169L12.6316 29.9169H7.56233C3.4072 29.9169 0 26.5097 0 22.3546V7.56233C0 3.4072 3.4072 0 7.56233 0H22.3546C26.5097 0 29.9169 3.4072 29.9169 7.56233V22.3546C30 26.5928 26.5928 30 22.3546 30Z" fill="white"/>
<path d="M12.6316 11.7175V14.9585H8.89197V19.1967H12.6316V29.9169H17.2853V19.2798H20.7756L21.4404 15.0416H17.3684V12.2992C17.3684 11.1358 17.9501 9.97232 19.7784 9.97232H21.6066V6.23271C21.6066 6.23271 19.9446 5.9834 18.2825 5.9834C14.8753 5.9834 12.6316 7.97786 12.6316 11.7175Z" fill="black"/>
</svg>
