<svg width="30" height="30" viewBox="0 0 30 30" fill="none" xmlns="http://www.w3.org/2000/svg">
<path d="M22.3546 30H7.56233C3.4072 30 0 26.5928 0 22.4377V7.56233C0 3.4072 3.4072 0 7.56233 0H22.3546C26.5097 0 29.9169 3.4072 29.9169 7.56233V22.3546C30 26.5928 26.5928 30 22.3546 30Z" fill="white"/>
<path d="M19.6122 9.47363C19.0305 9.47363 18.615 9.88915 18.615 10.4709C18.615 11.0526 19.0305 11.4681 19.6122 11.4681C20.1939 11.4681 20.6094 11.0526 20.6094 10.4709C20.6094 9.88915 20.1108 9.47363 19.6122 9.47363Z" fill="black"/>
<path d="M15.0416 10.7202C12.7147 10.7202 10.8033 12.6316 10.8033 14.9584C10.8033 17.2853 12.7147 19.1967 15.0416 19.1967C17.3684 19.1967 19.2798 17.2853 19.2798 14.9584C19.3629 12.6316 17.4515 10.7202 15.0416 10.7202ZM15.0416 17.7839C13.5457 17.7839 12.2992 16.5374 12.2992 15.0415C12.2992 13.5457 13.5457 12.2992 15.0416 12.2992C16.5374 12.2992 17.784 13.5457 17.784 15.0415C17.784 16.5374 16.5374 17.7839 15.0416 17.7839Z" fill="black"/>
<path d="M18.4488 23.6843H11.5513C8.64267 23.6843 6.3158 21.3575 6.3158 18.4489V11.5514C6.3158 8.64279 8.64267 6.31592 11.5513 6.31592H18.4488C21.3574 6.31592 23.6842 8.64279 23.6842 11.5514V18.4489C23.6842 21.3575 21.3574 23.6843 18.4488 23.6843ZM11.5513 7.97797C9.55679 7.97797 7.97785 9.55692 7.97785 11.5514V18.4489C7.97785 20.4433 9.55679 22.0223 11.5513 22.0223H18.4488C20.4432 22.0223 22.0222 20.4433 22.0222 18.4489V11.5514C22.0222 9.55692 20.4432 7.97797 18.4488 7.97797H11.5513Z" fill="black"/>
</svg>
