<svg version="1.1" xmlns="http://www.w3.org/2000/svg" xmlns:xlink="http://www.w3.org/1999/xlink" x="0px" y="0px" width="36.1px"
	 height="36.1px" viewBox="0 0 36.1 36.1" style="overflow:visible;enable-background:new 0 0 36.1 36.1;" xml:space="preserve">
<style type="text/css">
	.st0{fill:#FFFFFF;}
</style>
<defs>
</defs>
<g>
	<path d="M26.9,36.1H9.1c-5,0-9.1-4.1-9.1-9.1V9.1C0,4.1,4.1,0,9.1,0h17.8c5,0,9.1,4.1,9.1,9.1v17.8C36.1,32,32,36.1,26.9,36.1z"/>
	<g>
		<g>
			<g>
				<path class="st0" d="M23.6,11.4c-0.7,0-1.2,0.5-1.2,1.2s0.5,1.2,1.2,1.2c0.7,0,1.2-0.5,1.2-1.2S24.2,11.4,23.6,11.4z"/>
				<path class="st0" d="M18.1,12.9c-2.8,0-5.1,2.3-5.1,5.1c0,2.8,2.3,5.1,5.1,5.1c2.8,0,5.1-2.3,5.1-5.1
					C23.3,15.2,21,12.9,18.1,12.9z M18.1,21.4c-1.8,0-3.3-1.5-3.3-3.3c0-1.8,1.5-3.3,3.3-3.3c1.8,0,3.3,1.5,3.3,3.3
					C21.4,19.9,19.9,21.4,18.1,21.4z"/>
				<path class="st0" d="M22.2,28.5h-8.3c-3.5,0-6.3-2.8-6.3-6.3v-8.3c0-3.5,2.8-6.3,6.3-6.3h8.3c3.5,0,6.3,2.8,6.3,6.3v8.3
					C28.5,25.7,25.7,28.5,22.2,28.5z M13.9,9.6c-2.4,0-4.3,1.9-4.3,4.3v8.3c0,2.4,1.9,4.3,4.3,4.3h8.3c2.4,0,4.3-1.9,4.3-4.3v-8.3
					c0-2.4-1.9-4.3-4.3-4.3H13.9z"/>
			</g>
		</g>
	</g>
</g>
</svg>
