<svg version="1.1" xmlns="http://www.w3.org/2000/svg" xmlns:xlink="http://www.w3.org/1999/xlink" x="0px" y="0px" width="36.1px"
	 height="36.1px" viewBox="0 0 36.1 36.1" style="overflow:visible;enable-background:new 0 0 36.1 36.1;" xml:space="preserve">
<style type="text/css">
	.st0{fill:#FFFFFF;}
</style>
<defs>
</defs>
<g>
	<path d="M26.9,36.1H9.1c-5,0-9.1-4.1-9.1-9.1V9.1C0,4.1,4.1,0,9.1,0h17.8c5,0,9.1,4.1,9.1,9.1v17.8C36.1,32,32,36.1,26.9,36.1z"/>
	<g>
		<path class="st0" d="M27.9,12.1c-0.6,0.3-1.3,0.4-2,0.6c0.3-0.1,0.8-0.6,1-0.9c0.3-0.4,0.5-0.8,0.7-1.2c0,0,0-0.1,0-0.1
			c0,0-0.1,0-0.1,0c-0.7,0.4-1.5,0.7-2.3,0.9c-0.1,0-0.1,0-0.2,0c-0.1-0.1-0.1-0.1-0.2-0.2c-0.3-0.3-0.7-0.5-1.1-0.7
			c-0.5-0.2-1.1-0.3-1.7-0.3c-0.6,0-1.1,0.2-1.6,0.5c-0.5,0.3-1,0.6-1.3,1.1c-0.4,0.5-0.6,1-0.8,1.6c-0.1,0.6-0.1,1.1,0,1.7
			c0,0.1,0,0.1-0.1,0.1c-3.2-0.5-5.9-1.6-8-4.1c-0.1-0.1-0.1-0.1-0.2,0c-0.9,1.4-0.5,3.7,0.7,4.8c0.2,0.1,0.3,0.3,0.5,0.4
			c-0.1,0-0.8-0.1-1.5-0.4c-0.1-0.1-0.1,0-0.1,0.1c0,0.2,0,0.3,0,0.5c0.2,1.4,1.2,2.8,2.5,3.3c0.2,0.1,0.3,0.1,0.5,0.2
			c-0.3,0.1-0.6,0.1-1.5,0c-0.1,0-0.2,0-0.1,0.1c0.7,1.8,2.1,2.4,3.2,2.7c0.1,0,0.3,0,0.4,0.1c0,0,0,0,0,0c-0.4,0.5-1.6,1-2.2,1.2
			c-1,0.4-2.2,0.5-3.3,0.4c-0.2,0-0.2,0-0.3,0c0,0,0,0.1,0.1,0.1c0.2,0.1,0.5,0.3,0.7,0.4c0.7,0.4,1.4,0.7,2.2,0.9
			c4,1.1,8.4,0.3,11.4-2.7c2.3-2.3,3.2-5.5,3.2-8.7c0-0.1,0.1-0.2,0.2-0.3c0.6-0.5,1.1-1,1.6-1.6C28,12.2,28,12.1,27.9,12.1
			C28,12.1,28,12.1,27.9,12.1C28,12,28,12,27.9,12.1z"/>
	</g>
</g>
</svg>
