<svg width="30" height="30" viewBox="0 0 30 30" fill="none" xmlns="http://www.w3.org/2000/svg">
<path d="M22.3546 30H7.56233C3.4072 30 0 26.5928 0 22.4377V7.56233C0 3.4072 3.4072 0 7.56233 0H22.3546C26.5097 0 29.9169 3.4072 29.9169 7.56233V22.3546C30 26.5928 26.5928 30 22.3546 30Z" fill="white"/>
<path d="M23.1856 10.0555C22.687 10.3048 22.1053 10.3879 21.5235 10.5541C21.7728 10.471 22.1884 10.0555 22.3546 9.8062C22.6039 9.47379 22.7701 9.14138 22.9363 8.80897V8.72587H22.8532C22.2715 9.05828 21.6066 9.30759 20.9418 9.47379C20.8587 9.47379 20.8587 9.47379 20.7756 9.47379C20.6925 9.39069 20.6925 9.39069 20.6094 9.30759C20.3601 9.05828 20.0277 8.89208 19.6953 8.72587C19.2798 8.55967 18.7812 8.47656 18.2825 8.47656C17.7839 8.47656 17.3684 8.64277 16.9529 8.89207C16.5374 9.14138 16.1219 9.39069 15.8726 9.8062C15.5402 10.2217 15.374 10.6372 15.2078 11.1358C15.1247 11.6345 15.1247 12.05 15.2078 12.5486C15.2078 12.6317 15.2078 12.6317 15.1247 12.6317C12.4654 12.2162 10.2216 11.302 8.47645 9.22449C8.39335 9.14138 8.39335 9.14138 8.31025 9.22449C7.56233 10.3879 7.89474 12.2993 8.89197 13.2134C9.05817 13.2965 9.14127 13.4627 9.30748 13.5458C9.22438 13.5458 8.64266 13.4627 8.06094 13.2134C7.97784 13.1303 7.97784 13.2134 7.97784 13.2965C7.97784 13.4627 7.97784 13.5458 7.97784 13.712C8.14404 14.8755 8.97507 16.0389 10.0554 16.4544C10.2216 16.5375 10.3047 16.5375 10.4709 16.6206C10.2216 16.7037 9.9723 16.7037 9.22438 16.6206C9.14127 16.6206 9.05817 16.6206 9.14127 16.7037C9.72299 18.1996 10.8864 18.6982 11.8006 18.9475C11.8837 18.9475 12.0499 18.9475 12.133 19.0306C11.8006 19.4461 10.8033 19.8616 10.3047 20.0278C9.47368 20.3602 8.47645 20.4433 7.56233 20.3602C7.39612 20.3602 7.39612 20.3602 7.31302 20.3602C7.31302 20.3602 7.31302 20.4433 7.39612 20.4433C7.56233 20.5264 7.81163 20.6926 7.97784 20.7757C8.55956 21.1081 9.14127 21.3574 9.80609 21.5237C13.1302 22.4378 16.7867 21.773 19.2798 19.2799C21.1911 17.3685 21.9391 14.7092 21.9391 12.05C21.9391 11.9669 22.0222 11.8838 22.1053 11.8007C22.6039 11.3851 23.0194 10.9696 23.4349 10.471C23.2687 10.1386 23.2687 10.0555 23.1856 10.0555C23.2687 10.0555 23.2687 10.0555 23.1856 10.0555C23.2687 9.97241 23.2687 9.97241 23.1856 10.0555Z" fill="black"/>
</svg>
