<svg version="1.1" xmlns="http://www.w3.org/2000/svg" xmlns:xlink="http://www.w3.org/1999/xlink" x="0px" y="0px" width="36.1px"
	 height="36.1px" viewBox="0 0 36.1 36.1" style="overflow:visible;enable-background:new 0 0 36.1 36.1;" xml:space="preserve">
<style type="text/css">
	.st0{fill:#FFFFFF;}
</style>
<defs>
</defs>
<g>
	<path d="M26.9,36.1H9.1c-5,0-9.1-4.1-9.1-9.1V9.1C0,4.1,4.1,0,9.1,0h17.8c5,0,9.1,4.1,9.1,9.1v17.8C36.1,32,32,36.1,26.9,36.1z"/>
	<g>
		<path class="st0" d="M27.6,15.9c0-2.4-1.9-4.3-4.3-4.3H12.4c-2.4,0-4.3,1.9-4.3,4.3v5.1c0,2.4,1.9,4.3,4.3,4.3h10.9
			c2.4,0,4.3-1.9,4.3-4.3V15.9z M21.1,18.8l-4.9,2.4c-0.2,0.1-0.8,0-0.8-0.3v-5c0-0.2,0.7-0.4,0.9-0.3l4.7,2.6
			C21.1,18.4,21.3,18.7,21.1,18.8z"/>
	</g>
</g>
</svg>
