<svg width="30" height="30" viewBox="0 0 30 30" fill="none" xmlns="http://www.w3.org/2000/svg">
<path d="M22.3546 30H7.56233C3.4072 30 0 26.5928 0 22.4377V7.56233C0 3.4072 3.4072 0 7.56233 0H22.3546C26.5097 0 29.9169 3.4072 29.9169 7.56233V22.3546C30 26.5928 26.5928 30 22.3546 30Z" fill="white"/>
<path d="M22.9363 13.2131C22.9363 11.2186 21.3573 9.63965 19.3629 9.63965H10.3047C8.31024 9.63965 6.73129 11.2186 6.73129 13.2131V17.4513C6.73129 19.4457 8.31024 21.0247 10.3047 21.0247H19.3629C21.3573 21.0247 22.9363 19.4457 22.9363 17.4513V13.2131ZM17.5346 15.623L13.4626 17.6175C13.2964 17.7006 12.7978 17.6175 12.7978 17.3682V13.2131C12.7978 13.0469 13.3795 12.8806 13.5457 12.9637L17.4515 15.1244C17.5346 15.2906 17.7008 15.5399 17.5346 15.623Z" fill="black"/>
</svg>
